<?xml version="1.0" encoding="UTF-8" standalone="no"?><!DOCTYPE svg PUBLIC "-//W3C//DTD SVG 1.1//EN" "http://www.w3.org/Graphics/SVG/1.1/DTD/svg11.dtd"><svg width="100%" height="100%" viewBox="0 0 677 434" version="1.1" xmlns="http://www.w3.org/2000/svg" xmlns:xlink="http://www.w3.org/1999/xlink" xml:space="preserve" style="fill-rule:evenodd;clip-rule:evenodd;"><g id="Group.-4"><g id="Server.-.-.-Docksal"><text x="17.4px" y="16px" style="font-family:'NTR';font-size:20px;fill:#515660;">S<tspan x="28.244px 39.439px 51.826px 63.92px 75.115px 87.502px 93.013px 100.517px 106.029px 119.021px 132.99px 145.142px 156.845px 167.689px 179.822px " y="16px 16px 16px 16px 16px 16px 16px 16px 16px 16px 16px 16px 16px 16px 16px ">ERVER - DOCKSAL</tspan></text></g><g id="Rectangle"><rect x="0" y="31" width="677" height="403" style="fill:#fff;"/><path d="M677,434l-677,0l0,-403l677,0l0,403Zm-674.5,-400.5l0,398l672,0l0,-398l-672,0Z" style="fill:#515660;"/></g><g id="Group.-3"><g id="WWW.-.-.-Nuxt"><text x="35.297px" y="60px" style="font-family:'GalanoGrotesque-Regular';font-size:20px;fill:#4a4a4a;">WW<tspan x="73.583px 92.727px 97.85px 106.793px 111.917px 127.2px 139.763px " y="60px 60px 60px 60px 60px 60px 60px ">W - Nux</tspan>t</text></g><rect id="Rectangle1" x="34" y="76" width="279" height="332" style="fill:none;stroke:#515660;stroke-width:2.5px;"/><rect id="Rectangle.-Copy.-4" x="362" y="76" width="279" height="332" style="fill:none;stroke:#515660;stroke-width:2.5px;"/><rect id="Rectangle.-Copy" x="51" y="95" width="245" height="84" style="fill:#515660;"/><g id="Waterwheel"><text x="110.437px" y="125px" style="font-family:'GalanoGrotesque-Regular';font-size:20px;fill:#fff;">W<tspan x="128.88px 141.843px 149.507px 161.25px 169.573px 185.037px 197.62px 209.363px 221.107px " y="125px 125px 125px 125px 125px 125px 125px 125px 125px ">aterwheel</tspan></text></g><rect id="Rectangle.-Copy.-5" x="379" y="95" width="245" height="84" style="fill:#515660;"/><rect id="Rectangle.-Copy.-6" x="379" y="199" width="245" height="191" style="fill:#515660;"/><rect id="Rectangle.-Copy.-2" x="51" y="199" width="245" height="84" style="fill:#515660;"/><rect id="Rectangle.-Copy.-3" x="51" y="304" width="245" height="84" style="fill:#515660;"/><g id="Drupal.-8"><text x="455.363px" y="281px" style="font-family:'GalanoGrotesque-Regular';font-size:20px;fill:#fff;">Dr<tspan x="478.49px 491.053px 504.117px 517.08px 522.203px " y="281px 281px 281px 281px 281px ">upal </tspan>8</text></g><g id="JSON.-API"><text x="450.013px" y="128px" style="font-family:'GalanoGrotesque-Regular';font-size:20px;fill:#fff;">JS<tspan x="474.56px 490.703px 505.987px 511.11px 525.053px " y="128px 128px 128px 128px 128px ">ON AP</tspan>I</text></g><g id="VUE"><text x="149.335px" y="230px" style="font-family:'GalanoGrotesque-Regular';font-size:20px;fill:#fff;">VU<tspan x="177.842px " y="230px ">E</tspan></text></g><g id="A.-Frame"><text x="126.312px" y="336px" style="font-family:'GalanoGrotesque-Regular';font-size:20px;fill:#fff;">A<tspan x="139.955px " y="336px ">-</tspan>Fr<tspan x="168.645px 181.608px 200.612px " y="336px 336px 336px ">ame</tspan></text></g><g id="API.-.-.-Contenta"><text x="362.453px" y="60px" style="font-family:'GalanoGrotesque-Regular';font-size:20px;fill:#4a4a4a;">AP<tspan x="389.5px 394.663px 399.787px 408.73px 413.853px 429.477px 441.72px 454.283px 461.947px 473.69px 486.253px 493.917px " y="60px 60px 60px 60px 60px 60px 60px 60px 60px 60px 60px 60px ">I - Contenta</tspan></text></g><path id="Line" d="M110.5,177.5l0,16" style="fill:none;stroke:#515660;stroke-width:1px;stroke-linecap:square;"/><path id="Line.-decoration.-1" d="M107.5,182.7l3,10.8l3,-10.8" style="fill:none;stroke:#515660;stroke-width:1px;stroke-linecap:square;"/><path id="Line1" d="M235.5,183.5l0,15.5" style="fill:none;stroke:#515660;stroke-width:1px;stroke-linecap:square;"/><path id="Line.-decoration.-11" d="M232.5,194.3l3,-10.8l3,10.8" style="fill:none;stroke:#515660;stroke-width:1px;stroke-linecap:square;"/><path id="Line2" d="M439.5,178l0,16" style="fill:none;stroke:#515660;stroke-width:1px;stroke-linecap:square;"/><path id="Line.-decoration.-12" d="M436.5,183.2l3,10.8l3,-10.8" style="fill:none;stroke:#515660;stroke-width:1px;stroke-linecap:square;"/><path id="Line3" d="M564.5,184.5l0,15.5" style="fill:none;stroke:#515660;stroke-width:1px;stroke-linecap:square;"/><path id="Line.-decoration.-13" d="M561.5,195.3l3,-10.8l3,10.8" style="fill:none;stroke:#515660;stroke-width:1px;stroke-linecap:square;"/><path id="Line4" d="M378.505,156.667l-58.024,0" style="fill:none;stroke:#515660;stroke-width:1px;stroke-linecap:square;"/><path id="Line.-decoration.-14" d="M331.281,153.667l-10.8,3l10.8,3" style="fill:none;stroke:#515660;stroke-width:1px;stroke-linecap:square;"/><path id="Line5" d="M355.508,114.5l-59.097,0" style="fill:none;stroke:#515660;stroke-width:1px;stroke-linecap:square;"/><path id="Line.-decoration.-15" d="M344.708,111.5l10.8,3l-10.8,3" style="fill:none;stroke:#515660;stroke-width:1px;stroke-linecap:square;"/><path id="Line6" d="M110.5,282.5l0,16" style="fill:none;stroke:#515660;stroke-width:1px;stroke-linecap:square;"/><path id="Line.-decoration.-16" d="M107.5,287.7l3,10.8l3,-10.8" style="fill:none;stroke:#515660;stroke-width:1px;stroke-linecap:square;"/><path id="Line7" d="M235.5,288.5l0,15.5" style="fill:none;stroke:#515660;stroke-width:1px;stroke-linecap:square;"/><path id="Line.-decoration.-17" d="M232.5,299.3l3,-10.8l3,10.8" style="fill:none;stroke:#515660;stroke-width:1px;stroke-linecap:square;"/></g></g></svg>