<?xml version="1.0" encoding="UTF-8" standalone="no"?><!DOCTYPE svg PUBLIC "-//W3C//DTD SVG 1.1//EN"
        "http://www.w3.org/Graphics/SVG/1.1/DTD/svg11.dtd">
<svg width="100%" height="100%" viewBox="0 0 84 40" version="1.1" xmlns="http://www.w3.org/2000/svg" xmlns:xlink="http://www.w3.org/1999/xlink" xml:space="preserve" style="fill-rule:evenodd;clip-rule:evenodd;stroke-linejoin:round;stroke-miterlimit:1.41421;"><path id="Shape" d="M64.712,0.76c-5.1,0 -9.976,2.026 -13.576,5.626l-22.202,22.202c-2.301,2.316 -5.435,3.613 -8.7,3.6c-6.751,0 -12.227,-5.475 -12.227,-12.226c0,-6.75 5.476,-12.226 12.226,-12.226c3.3,0 6.376,1.276 8.626,3.6l6.525,6.526l4.876,-4.875l-6.526,-6.526c-3.6,-3.602 -8.484,-5.626 -13.576,-5.625c-10.576,0 -19.201,8.626 -19.201,19.202c0,10.575 8.625,19.201 19.201,19.201c5.1,0 9.976,-2.025 13.576,-5.625l22.202,-22.202c2.325,-2.325 5.4,-3.6 8.626,-3.6c6.75,0 12.226,5.475 12.226,12.226c0,6.75 -5.476,12.226 -12.226,12.226c-3.3,0 -6.376,-1.276 -8.626,-3.6l-6.525,-6.526l-4.876,4.875l6.526,6.526c3.6,3.6 8.475,5.625 13.576,5.625c10.576,0 19.202,-8.626 19.202,-19.202c0.075,-10.65 -8.551,-19.201 -19.127,-19.201l0,-0.001Z" style="fill:#eee;"/></svg>