<svg xmlns="http://www.w3.org/2000/svg" width="279" height="30" viewBox="0 0 279 30">
    <g fill="none" fill-rule="evenodd">
        <path fill="#009FD9"
              d="M237.52.23a14.759 14.759 0 0 0-10.443 4.328L210 21.635a9.38 9.38 0 0 1-6.692 2.769c-5.193 0-9.404-4.212-9.404-9.404s4.211-9.404 9.404-9.404c2.538 0 4.904.98 6.634 2.77l5.02 5.019 3.75-3.75-5.02-5.02-1.904 1.904 1.904-1.904A14.759 14.759 0 0 0 203.25.288c-8.135 0-14.77 6.635-14.77 14.77 0 8.134 6.635 14.769 14.77 14.769 3.923 0 7.673-1.558 10.442-4.327L230.77 8.423c1.789-1.788 4.154-2.77 6.635-2.77 5.192 0 9.404 4.212 9.404 9.405 0 5.192-4.212 9.404-9.404 9.404-2.539 0-4.904-.981-6.635-2.77l-5.019-5.019-3.75 3.75 5.02 5.02a14.759 14.759 0 0 0 10.442 4.326c8.134 0 14.769-6.634 14.769-14.769.057-8.192-6.577-14.77-14.712-14.77z"/>
        <path fill="#4E4B53"
              d="M5.538 26.712c0 3.461-5.307 3.576-5.307.057V4.096a2.4 2.4 0 0 1 2.423-2.423h10.615c10.154 0 12.231 13.615 3.75 16.962l5.308 6.461c2.077 3.058-2.077 6.058-4.5 3l-6.058-8.654H5.54v7.27zm0-11.827h7.731c5.193 0 5.539-8.366 0-8.366H5.54v8.366zM29.654 29.308a2.462 2.462 0 0 1-2.48-2.481V4.154c0-1.442 1.095-2.48 2.48-2.48h14.365c3.693 0 3.577 5.191 0 5.191H32.481v6h10.096c3.577 0 3.577 5.25 0 5.25H32.48v6h12.173c3.634 0 3.923 5.25 0 5.25h-15v-.057zM51.23 29.308c-1.268-.693-2.076-2.135-1.268-3.866L61.442 3C62.538.865 65.423.808 66.404 3l11.25 22.442c1.615 3.116-3.173 5.596-4.616 2.481l-1.73-3.52h-14.77l-1.73 3.52c-.635 1.385-2.135 1.673-3.577 1.385zm17.193-10.154l-4.5-9.866-4.904 9.866h9.404zM81.288 4.096c0-1.327 1.097-2.423 2.539-2.423 1.27 0 2.365 1.096 2.365 2.423v20.02h10.846c3.924 0 3.981 5.25 0 5.25H83.827c-1.385 0-2.539-.981-2.539-2.424V4.096zM104.423 4.096c0-3.288 5.25-3.404 5.25 0v22.846c0 3.346-5.25 3.404-5.25 0V4.096zM123.115 6.692h-6.98c-3.462 0-3.462-5.134 0-5.134H135c3.577 0 3.577 5.134 0 5.134h-6.635v20.193c0 3.461-5.25 3.577-5.25 0V6.692zM140.712 5.423c-2.135-2.654 2.365-5.77 4.5-2.827l7.326 10.962 7.5-10.962c2.135-2.942 6.462 0 4.385 2.654l-9.346 13.327v8.25c.346 3.461-5.25 3.461-5.25 0v-8.25l-9.115-13.154zM168.23 4.096c0-1.327 1.097-2.423 2.54-2.423 1.268 0 2.365 1.096 2.365 2.423v20.02h10.846c3.923 0 3.98 5.25 0 5.25h-13.212c-1.384 0-2.538-.981-2.538-2.424V4.096zM256.615 4.096c0-1.327 1.039-2.77 2.712-2.77h9.23c5.193 0 9.866 3.462 9.866 10.155 0 6.288-4.673 9.807-9.865 9.807h-6.635v5.25c0 1.731-1.096 2.77-2.538 2.77-1.327 0-2.712-.981-2.712-2.77V4.096h-.058zm5.308 2.25v9.98h6.692c2.654 0 4.789-2.364 4.789-4.845 0-2.77-2.135-5.135-4.789-5.135h-6.692z"/>
    </g>
</svg>